Coordinates
version=1
nRows=18
nColumns=22
inDegrees=yes

Units are S.I. units (second, meters, Newtons, ...)
If the header above contains a line with 'inDegrees', this indicates whether rotational values are in degrees (yes) or radians (no).

endheader
time	pelvis_tilt	pelvis_list	pelvis_rotation	pelvis_tx	pelvis_ty	pelvis_tz	hip_flexion_r	hip_adduction_r	hip_rotation_r	knee_angle_r	ankle_angle_r	subtalar_angle_r	hip_flexion_l	hip_adduction_l	hip_rotation_l	knee_angle_l	ankle_angle_l	subtalar_angle_l	lumbar_extension	lumbar_bending	lumbar_rotation
      1.69000000	     -7.13353414	     -2.75403236	    -30.19829387	     -0.85957999	      0.87751877	     -0.37460556	     36.97207175	      0.33631286	     -1.75551354	    -44.95086600	      7.44439999	      1.67837296	     -3.60364202	     -2.95086264	      3.17475497	     -9.34603863	     21.62237454	     -4.53116550	     -3.05897157	      4.40153136	      7.14535707
      1.70000000	     -7.05139374	     -2.87524822	    -30.10611435	     -0.85607143	      0.87681477	     -0.37242501	     36.76612335	      0.50058517	     -1.46185517	    -42.92394825	      7.05852204	      2.31267491	     -3.86990741	     -3.02312570	      3.25433024	     -9.66572776	     22.00273549	     -4.57104083	     -3.19572310	      4.53199467	      6.99306007
      1.71000000	     -6.99961504	     -2.98699721	    -29.99415541	     -0.85243324	      0.87598491	     -0.37014941	     36.52445651	      0.65028598	     -1.17272606	    -40.77435967	      6.73780071	      2.71959965	     -4.10280435	     -3.10950769	      3.33842688	    -10.00374172	     22.39477660	     -4.62256049	     -3.28701776	      4.66865979	      6.82454941
      1.72000000	     -6.92339611	     -3.07278489	    -29.86322715	     -0.84865942	      0.87508144	     -0.36784261	     36.22973044	      0.73331924	     -0.88317786	    -38.54254302	      6.41351532	      3.11068983	     -4.36268518	     -3.15909460	      3.45643400	    -10.32301073	     22.78666276	     -4.66089826	     -3.38434618	      4.77065390	      6.64392193
      1.73000000	     -6.84021996	     -3.12711827	    -29.71690085	     -0.84476634	      0.87407248	     -0.36548267	     35.90840073	      0.75631889	     -0.61139145	    -36.25126716	      6.11323557	      3.42011270	     -4.62509481	     -3.17872497	      3.59679850	    -10.63312004	     23.18151003	     -4.68403492	     -3.46650645	      4.83982375	      6.45035590
      1.74000000	     -6.74831966	     -3.14482025	    -29.55660522	     -0.84074660	      0.87295027	     -0.36310773	     35.57222120	      0.71072974	     -0.36926311	    -33.92619353	      5.85274780	      3.63345719	     -4.89187856	     -3.15998483	      3.74747442	    -10.92491141	     23.57556569	     -4.68275801	     -3.53446093	      4.87918068	      6.24968230
      1.75000000	     -6.67158751	     -3.12751406	    -29.38799285	     -0.83666667	      0.87169519	     -0.36063441	     35.24969088	      0.62275737	     -0.17407375	    -31.58015417	      5.60607167	      3.72559502	     -5.13633380	     -3.12682321	      3.89553545	    -11.21053292	     23.97445788	     -4.66268855	     -3.56697651	      4.88404716	      6.03247856
      1.76000000	     -6.58107470	     -3.08429102	    -29.21608405	     -0.83246981	      0.87034944	     -0.35812607	     34.91598096	      0.48530368	     -0.02609948	    -29.23876723	      5.39312308	      3.75043711	     -5.40020777	     -3.06373970	      4.04204785	    -11.47495346	     24.36974493	     -4.60635146	     -3.59817803	      4.86667918	      5.81997502
      1.77000000	     -6.48909702	     -3.02021804	    -29.04484632	     -0.82820377	      0.86891434	     -0.35552154	     34.58743345	      0.32312610	      0.07390569	    -26.91995443	      5.16881436	      3.72631638	     -5.67209715	     -2.98920357	      4.18130697	    -11.72279785	     24.76685886	     -4.51588779	     -3.62101929	      4.82481234	      5.61061480
      1.78000000	     -6.39877176	     -2.93750569	    -28.87849566	     -0.82386880	      0.86739493	     -0.35282751	     34.27014879	      0.14641678	      0.14103251	    -24.63932573	      4.93049761	      3.68550883	     -5.95134785	     -2.90532038	      4.30922883	    -11.95331563	     25.16132861	     -4.39719945	     -3.63437192	      4.76534433	      5.40960528
      1.79000000	     -6.30733785	     -2.84515345	    -28.72058240	     -0.81946214	      0.86581322	     -0.35002368	     33.95892743	     -0.02904306	      0.18644527	    -22.41435226	      4.67350497	      3.65819995	     -6.24771552	     -2.81898937	      4.41960106	    -12.16363029	     25.55437234	     -4.25128781	     -3.64556112	      4.69645858	      5.22024876
      1.80000000	     -6.22198531	     -2.74464969	    -28.57319623	     -0.81500679	      0.86417292	     -0.34709657	     33.66425013	     -0.19268960	      0.22482630	    -20.26041402	      4.38425900	      3.67168824	     -6.55320300	     -2.73666068	      4.51180759	    -12.35726880	     25.94182016	     -4.09425492	     -3.65030574	      4.61982531	      5.04766342
      1.81000000	     -6.13583606	     -2.64214993	    -28.43794303	     -0.81050016	      0.86249421	     -0.34405117	     33.37887594	     -0.33975035	      0.27334970	    -18.19407174	      4.07039802	      3.74187356	     -6.87747491	     -2.65822285	      4.58260202	    -12.53525538	     26.32804580	     -3.92173111	     -3.65994880	      4.54014976	      4.89014550
      1.82000000	     -6.06949596	     -2.53510523	    -28.31477974	     -0.80595153	      0.86076116	     -0.34089245	     33.12301509	     -0.46185181	      0.34281495	    -16.22522872	      3.73333514	      3.86468769	     -7.19456942	     -2.59061432	      4.63983242	    -12.70658895	     26.69624822	     -3.76815357	     -3.65224588	      4.46771465	      4.75751607
      1.83000000	     -6.01031795	     -2.42606047	    -28.20078690	     -0.80136746	      0.85899766	     -0.33762092	     32.88986279	     -0.56491535	      0.42999529	    -14.37587898	      3.37693010	      4.03713695	     -7.51941095	     -2.53036519	      4.68300772	    -12.86706457	     27.05501416	     -3.61964526	     -3.64379827	      4.39694883	      4.64147218
      1.84000000	     -5.95778825	     -2.31296840	    -28.09121948	     -0.79674221	      0.85720900	     -0.33425630	     32.68315562	     -0.65686043	      0.52505770	    -12.66435228	      3.01842899	      4.25760388	     -7.84830613	     -2.47395322	      4.71931171	    -13.02026984	     27.40511938	     -3.47098226	     -3.63460233	      4.32844656	      4.53515012
      1.85000000	     -5.93792475	     -2.18504078	    -27.97959417	     -0.79209413	      0.85536623	     -0.33079679	     32.53443837	     -0.73774052	      0.61947886	    -11.10253126	      2.67195024	      4.46524950	     -8.14486434	     -2.42616413	      4.76815951	    -13.17430827	     27.72045463	     -3.35621518	     -3.59319684	      4.26170720	      4.44370236
      1.86000000	     -5.92479578	     -2.05103881	    -27.85888531	     -0.78739121	      0.85351495	     -0.32725907	     32.41859456	     -0.81974275	      0.68312130	     -9.71370678	      2.36877629	      4.69078037	     -8.44231797	     -2.38290952	      4.82778597	    -13.32035654	     28.02092562	     -3.23823633	     -3.54982946	      4.19565088	      4.34710902
